<?xml version="1.0" standalone="no"?>
<!DOCTYPE svg PUBLIC "-//W3C//DTD SVG 20010904//EN"
 "http://www.w3.org/TR/2001/REC-SVG-20010904/DTD/svg10.dtd">
<svg version="1.0" xmlns="http://www.w3.org/2000/svg"
 width="500.000000pt" height="500.000000pt" viewBox="0 0 500.000000 500.000000"
 preserveAspectRatio="xMidYMid meet">

<g transform="translate(0.000000,500.000000) scale(0.100000,-0.100000)" stroke="none">
<path d="M2503 3436 c-887 -512 -1613 -933 -1613 -936 0 -3 726 -425 1613
-936 l1612 -931 3 933 c1 514 1 1354 0 1868 l-3 933 -1612 -931z m917 -936 c0
-357 -3 -650 -7 -650 -10 0 -1123 644 -1123 650 0 6 1111 649 1123 650 4 0 7
-292 7 -650z"/>
</g>
</svg>
