<?xml version="1.0" standalone="no"?>
<!DOCTYPE svg PUBLIC "-//W3C//DTD SVG 20010904//EN"
 "http://www.w3.org/TR/2001/REC-SVG-20010904/DTD/svg10.dtd">
<svg version="1.0" xmlns="http://www.w3.org/2000/svg"
 width="500.000000pt" height="500.000000pt" viewBox="0 0 500.000000 500.000000"
 preserveAspectRatio="xMidYMid meet">

<g transform="translate(0.000000,500.000000) scale(0.100000,-0.100000)" stroke="none">
<path d="M1230 2500 l0 -1870 48 27 c1388 800 3182 1839 3182 1843 0 4 -1794
1043 -3182 1843 l-48 27 0 -1870z m1272 328 c307 -178 558 -325 558 -328 0 -6
-1113 -650 -1123 -650 -4 0 -7 293 -7 650 0 358 3 650 7 650 3 0 258 -145 565
-322z"/>
</g>
</svg>
